<svg width="106" height="113" fill="none" xmlns="http://www.w3.org/2000/svg">
  <g clip-path="url(#clip0)">
    <path d="M15.9 84.5a14.4 14.4 0 100-28.8 14.4 14.4 0 000 28.8z" fill="#fff" stroke="#2B2B2B" stroke-miterlimit="10"/>
    <path d="M11.9 72a1.3 1.3 0 100-2.6 1.3 1.3 0 000 2.6zM20.3 70.1a1.3 1.3 0 100-2.6 1.3 1.3 0 000 2.6z" fill="#2B2B2B"/>
    <path d="M.6 79.3c2.1.3 3.9 1.1 6 1.4l.2-6.2s-.1-12.6.5-12.6c.3 0 .2 2.4 1.7 3.3.9.5 1.9.3 2.5.2 2.9-.6 5.8-1 8.6-1.8 5.7-1.6 7.4-1.2 7.6-2.2.4-1.6-3.5-4.2-6.9-5.3-2-.6-6.6-1.7-11.5.7-5.1 2.5-7 7.2-7.9 9.5a22.3 22.3 0 00-.8 13z" fill="#2B2B2B"/>
    <path d="M14.4 78c3.9.2 5.4-.2 7.5-2.2" stroke="#2B2B2B" stroke-miterlimit="10" stroke-linecap="round"/>
    <path d="M23.6 104.1a12.5 12.5 0 100-25 12.5 12.5 0 000 25z" fill="#fff" stroke="#2B2B2B" stroke-miterlimit="10"/>
    <path d="M19.5 93.9a1.3 1.3 0 100-2.6 1.3 1.3 0 000 2.6zM27 92a1.3 1.3 0 100-2.6 1.3 1.3 0 000 2.6z" fill="#2B2B2B"/>
    <path d="M21.4 99.1c3.9.2 5.4-.2 7.5-2.2" stroke="#2B2B2B" stroke-miterlimit="10" stroke-linecap="round"/>
    <path d="M13 98.9s-1.1-5.9-.1-6.5c.6-.3 1.9 1.1 2.2.9.3-.3-1.1-2-.6-2.6.4-.6 2 .2 2.2-.2.3-.5-1.4-1.4-1.6-3-.1-1.2.6-2.6 1.2-2.6.9 0 .6 2.7 2.7 4.3 1.8 1.4 4.4 1.2 4.5.7.1-.5-2.3-1-2.8-2.9-.4-1.3.2-2.6.6-2.7.4 0 .3 1.5 1.5 2.7 1.2 1.1 3.1 1.3 3.3.8.2-.4-1.3-1.1-1.1-2.1.1-.8 1.2-1.5 1.7-1.3.5.2.1 1.2.8 2.1.5.6 1.3.7 2.4.9 2.4.4 4.4.8 5.1 2 .7 1.1 1.1 3.6 1.1 3.6h.9s.5-4.3-2.1-7.9c-4.1-5.8-11.3-8.1-18.8-3.6a11.3 11.3 0 00-5.9 9.2 17 17 0 001.8 8.8l1-.6z" fill="#2B2B2B"/>
    <path d="M34.1 79a13.5 13.5 0 100-27 13.5 13.5 0 000 27z" fill="#fff" stroke="#2B2B2B" stroke-miterlimit="10"/>
    <path d="M27.4 65.2a1.7 1.7 0 100-3.4 1.7 1.7 0 000 3.4zM36.8 66.5a1.7 1.7 0 100-3.4 1.7 1.7 0 000 3.4z" fill="#2B2B2B"/>
    <path d="M25.9 70.7c3 3.9 7.9 2.9 10.8 1.6" stroke="#2B2B2B" stroke-miterlimit="10" stroke-linecap="round"/>
    <path d="M27.5 58.7c.4.2.9-.8 2.2-.9l1.2.2c1.4.4 1.9 1.3 2.7 1.9 1.3.9 3 1 4.2.8 2.8-.4 4.3-4.6 4.5-5 1.9 0 2.9 2.4 2.9 2.4s3.4-3.3 3.4-3.7c0-1.4-17.6-4.6-20.8.4-.7 1.4-.8 3.7-.3 3.9z" fill="#2B2B2B"/>
    <path d="M79.7 75.5a12.8 12.8 0 100-25.6 12.8 12.8 0 000 25.6z" fill="#fff" stroke="#2B2B2B" stroke-miterlimit="10"/>
    <path d="M79.1 61.4a1.7 1.7 0 100-3.4 1.7 1.7 0 000 3.4zM86.5 57.1a1.7 1.7 0 100-3.4 1.7 1.7 0 000 3.4z" fill="#2B2B2B"/>
    <path d="M83.3 67.6c3.9.2 7.3-2.5 8.9-6.9" stroke="#2B2B2B" stroke-miterlimit="10" stroke-linecap="round"/>
    <path d="M73.5 65.9l2.8-1.5c-1-1-2.2-2.7-2.4-4.8-.2-2.3.9-5.6.9-5.6l-4.4.2s-3.2.1-3.3.3c-.1.2 1.3 1.4 1.1 1.6-.2.2 1.4-.8 1.2-.8 1.4 2 3.5 4.1 4.1 10.6z" fill="#2B2B2B"/>
    <path d="M57 79.8a13.3 13.3 0 100-26.6 13.3 13.3 0 000 26.6z" fill="#fff" stroke="#2B2B2B" stroke-miterlimit="10"/>
    <path d="M52.7 67.2a1.7 1.7 0 100-3.4 1.7 1.7 0 000 3.4zM61.8 67.5a1.7 1.7 0 100-3.4 1.7 1.7 0 000 3.4z" fill="#2B2B2B"/>
    <path d="M52.2 72.8c4.7 4.3 9.1 2.1 11.1-.3" stroke="#2B2B2B" stroke-miterlimit="10" stroke-linecap="round"/>
    <path d="M46.2 100a18.2 18.2 0 00-2.8 7.1c-.2 1.7-.4 3.1.4 4 1.4 1.7 5.1 1.4 6.3-.3.3-.4.5-1.2-.5-4.9-.7-2.5-1.5-4.5-2.1-5.9a4.6 4.6 0 002.7-4.3 4.6 4.6 0 00-.9-2.3 3 3 0 001.6-2.6c0-1.2-.7-2.4-1.8-2.9.1 0 1.9-.9 2.1-2.8.2-1.4-.6-2.9-1.9-3.6.2-.1 1-.6 1.3-1.6.2-.6.1-1.1 0-1.3L48 76.5l-.1-14.3c.8.1 3 .3 5.2-.9 3.7-2.2 4-6.6 4-6.9l2.4.9c0 .5-.1 3.3 2.2 5.6 2.3 2.3 5.2 2.1 5.7 2.1l.2 12c-.3.4-1 1.3-1.7 1.9-.9.7-1.3 1.1-1.9 1.3-.1.1-1 1.9-.1 3.5.4.7 1 1 1.3 1.2-1 .4-1.7 1.3-1.7 2.4-.1 1.1.6 2.2 1.6 2.7-1.2.7-1.9 1.9-1.7 3.2.2 1.5 1.5 2.2 1.6 2.3-.9.9-1.1 1.7-1.1 2.1 0 .9.6 1.4 1.5 2.9l1.5 2.5a14 14 0 00-3.1 7.1c-.2 2.3.3 3.1.5 3.3 1.2 1.4 4 1.4 5.3.3 1.8-1.5 1.4-5.9-1.5-10.7.1-.7.3-1.8.8-3.1.8-2 1.6-2.8 1.4-4.1a4 4 0 00-1.3-2.4 3 3 0 001.8-2.7c0-1.5-1.2-2.4-1.3-2.5.1-.1 1.2-1 1.1-2.6-.1-1.3-1.1-2-1.2-2.1 1.1-1.3 1.8-2 1.6-4.3-.1-1.3-.7-2.1-2.1-2.4l-.1-2.2c.8-2 1.2-1.8 2.8.4.4.6 1.1-3.1.8-8.2-.1-1.8-.7-5.8-4.6-9.4a15.7 15.7 0 00-20.4.2c-5 4.4-6.5 12.1-3.4 18.5-.2.3-1.1 1.7-.7 3.6.3 1.5 1.2 2.3 1.5 2.6-.1.1-1.5 1.1-1.5 2.8a3.4 3.4 0 001.4 2.5c-1 .6-1.6 1.7-1.6 2.8 0 1.5 1.2 2.4 1.3 2.5-.3.6-1.1 2.4-.7 4.6.4 2.6 2 4.1 2.5 4.5z" fill="#2B2B2B"/>
    <path d="M88.2 43.8c-9.6.8-21 1.2-35.2 1.2-16.6 0-24.3-.3-35.3-1.3-.2-3.5-.3-6.6 0-9.5 45 5.4 68.2.2 70.6-.4.4 3.7.1 6.5-.1 10z" fill="#fff" stroke="#2B2B2B"/>
    <path d="M92.4 43.4l-4.2.4c-9.6.8-21 1.2-35.2 1.2-16.6 0-24.3-.3-35.3-1.3l-8.1-.8A398 398 0 001 42c0 6.8 16.8 12.3 37.5 12.3h29.1c20.8 0 37.5-5.5 37.5-12.3-3.9.5-8.1 1-12.7 1.4zm-4.1-9.7c-.3-3.3-.9-6.3-1.7-9.1C81.8 7.2 67.9.5 52.9.5c-15 0-28.8 6.7-33.6 24.2-.8 2.8-1.3 5.9-1.6 9.4 45 5.3 68.2.2 70.6-.4z" fill="#fff" stroke="#2B2B2B" stroke-miterlimit="10"/>
    <mask id="a" maskUnits="userSpaceOnUse" x="0" y="0" width="106" height="55">
      <path d="M92.4 43.4l-4.2.4c-9.6.8-21 1.2-35.2 1.2-16.6 0-24.3-.3-35.3-1.3l-8.1-.8A398 398 0 001 42c0 6.8 16.8 12.3 37.5 12.3h29.1c20.8 0 37.5-5.5 37.5-12.3-3.9.5-8.1 1-12.7 1.4zm-4.1-9.7c-.3-3.3-.9-6.3-1.7-9.1C81.8 7.2 67.9.5 52.9.5c-15 0-28.8 6.7-33.6 24.2-.8 2.8-1.3 5.9-1.6 9.4 45 5.3 68.2.2 70.6-.4z" fill="#fff" stroke="#2B2B2B" stroke-miterlimit="10"/>
    </mask>
    <g mask="url(#a)" stroke="#000" stroke-width=".7">
      <path d="M-16.2 30.7l90.4-61M-14.5 33.1l90.3-60.9M-12.8 35.6l90.3-60.9M-11.2 38.1l90.4-60.9M-9.5 40.6l90.4-60.9M-7.8 43.1l90.4-61M-6.1 45.6l90.3-61M-4.5 48.1l90.4-61M-2.8 50.6l90.4-61M-1.1 53L89.3-7.9M.6 55.5L90.9-5.4M2.3 58L92.6-2.9M3.9 60.5L94.3-.4M5.6 63L96 2M7.3 65.5l90.4-61M9 68L99.3 7M10.6 70.5l90.4-61M12.3 72.9L102.7 12M14 75.4l90.4-60.9M15.7 77.9L106 17M17.4 80.4l90.3-60.9M19 82.9l90.4-61M20.7 85.4l90.4-61M22.4 87.9l90.4-61M24.1 90.4l90.3-61M25.7 92.8l90.4-60.9M27.4 95.3l90.4-60.9"/>
    </g>
  </g>
  <defs>
    <clipPath id="clip0">
      <path fill="#fff" d="M0 0h105.5v112.3H0z"/>
    </clipPath>
  </defs>
</svg>
