<svg width="100" height="100" viewBox="0 0 100 100" fill="none" xmlns="http://www.w3.org/2000/svg">
<g clip-path="url(#clip0)">
<path d="M83.4323 51.1763C74.6887 54.2424 64.173 57.3732 50.9543 60.8108C35.5015 64.8294 28.2612 66.4152 17.7802 68.1506C16.7498 64.9526 15.8996 62.062 15.4793 59.2995C58.6721 53.4144 79.0073 42.9923 81.0967 41.8547C82.327 45.1831 82.7742 47.8815 83.4323 51.1763Z" fill="#E3C759"/>
<path d="M87.2455 49.7886C85.9664 50.2203 84.7114 50.7447 83.4323 51.1764C74.6887 54.2424 64.173 57.3732 50.9543 60.8108C35.5015 64.8294 28.2612 66.4152 17.7802 68.1506C15.4047 68.5703 12.912 68.9215 10.047 69.3695C7.55428 69.7206 4.87542 70.1202 1.8242 70.6166C3.46445 76.9239 20.4301 77.9583 39.6996 72.9472L66.7886 65.9025C86.1512 60.8672 100.37 51.7229 98.7302 45.4156C95.2203 46.8235 91.4312 48.304 87.2455 49.7886ZM81.0748 41.7935C79.9995 38.8052 78.7317 36.1584 77.3115 33.7549C68.6461 18.7777 54.0906 15.9281 40.1272 19.5594C26.1638 23.1907 14.9336 32.746 14.6866 50.14C14.6172 52.9308 14.8995 55.9272 15.4645 59.2462C58.6332 53.2684 78.9854 42.931 81.0748 41.7935Z" fill="#595647"/>
</g>
<defs>
<clipPath id="clip0">
<rect width="100" height="100" fill="white"/>
</clipPath>
</defs>
</svg>
